<svg xmlns="http://www.w3.org/2000/svg" viewBox="0 0 2 2">
  <svg x="0" width="1" y="0" height="1" viewBox="0 0 36 36"><path fill="#EF8294" d="M15.274 20.121c-2.712 0-4.91-2.837-4.91-7.063 0-4.319 2.035-6.272 2.896-6.905a.5.5 0 0 1 .667.068c.891.989 3.528 4.137 3.528 6.778 0 4.227.528 7.122-2.181 7.122zM20.726 20.121c2.712 0 4.91-2.837 4.91-7.063 0-4.319-2.035-6.272-2.896-6.905a.5.5 0 0 0-.667.068c-.891.989-3.528 4.137-3.528 6.778 0 4.227-.528 7.122 2.181 7.122z"/><path fill="#F4ABBA" d="M18 21.182c-5.17-5.25-3.322-6.513-14.294-10.218a.5.5 0 0 0-.62.276c-1.804 4.216-1.369 7.359 4.201 8.894-2.141-.014-4.393.249-6.813.492a.5.5 0 0 0-.447.55c.325 3.099 3.617 7.551 11.214 5.121A2.68 2.68 0 0 0 11 27.392c0 2.683 5.164 4.224 6.62 4.605a1.528 1.528 0 0 0 .76 0c1.456-.381 6.62-1.922 6.62-4.605 0-.387-.089-.751-.241-1.094 7.596 2.43 10.888-2.022 11.214-5.121a.5.5 0 0 0-.447-.55c-2.42-.243-4.671-.507-6.813-.492 5.57-1.535 6.004-4.678 4.201-8.894a.5.5 0 0 0-.62-.277C21.322 14.668 23.17 15.932 18 21.182z"/><path fill="#EA596E" d="M26.975 8.577a.56.56 0 0 0-.931.007l-3.259 4.961-.426-.001c0-.023.005-.044.005-.067 0-3.677-3.182-5.798-4.111-6.339a.502.502 0 0 0-.503 0c-.929.541-4.113 2.662-4.113 6.339 0 .023.005.044.005.067l-.426.001-3.26-4.961a.56.56 0 0 0-.931-.006c-1.417 2.086-2.438 4.673-1.86 7.472 1.098 5.323 5.866 7.944 10.837 6.769 4.968 1.175 9.736-1.445 10.834-6.769.577-2.8-.444-5.387-1.861-7.473z"/><path fill="#F4900C" d="m15.142 21.727-2.597-7.636h10.91l-2.597 7.636z"/><ellipse fill="#FFDC5D" cx="18" cy="14.091" rx="5.455" ry="1.636"/><path fill="#EA596E" d="M18.001 26c-2.411 0-4.365-2.309-4.365-5.748 0-3.797 3.167-5.992 4.106-6.558a.502.502 0 0 1 .518 0c.938.567 4.104 2.761 4.104 6.559 0 3.438-1.954 5.747-4.363 5.747z"/><path fill="#EF8294" d="M32 14.716a.503.503 0 0 0-.617-.491c-2.67.644-13.348 3.72-13.382 11.737-.035-8.017-10.713-11.093-13.383-11.737a.499.499 0 0 0-.618.491c.021 2.451.999 11.282 13.998 11.284h.004C31.001 25.998 31.979 17.167 32 14.716z"/></svg>
  <svg x="1" width="1" y="0" height="1" viewBox="0 0 36 36"><path fill="#FDD888" d="M28.865 7.134c7.361 7.359 9.35 17.304 4.443 22.209-4.907 4.907-14.85 2.918-22.21-4.441-.25-.25-.478-.51-.716-.766l4.417-4.417c5.724 5.724 13.016 7.714 16.286 4.442 3.271-3.271 1.282-10.563-4.441-16.287l.022.021-.021-.022C20.104 1.331 11.154-.326 6.657 4.171 4.482 6.346 3.76 9.564 4.319 13.044c-.858-4.083-.15-7.866 2.338-10.353 4.906-4.906 14.849-2.917 22.208 4.443z"/><path fill="#FFAC33" d="M19.403 34c-.252 0-.503-.077-.719-.231l-5.076-3.641-5.076 3.641c-.433.31-1.013.31-1.443-.005-.43-.312-.611-.864-.45-1.369l1.894-6.11-5.031-3.545c-.428-.315-.605-.869-.442-1.375.165-.504.634-.847 1.165-.851l6.147-.012 2.067-5.957c.168-.504.639-.844 1.17-.844.531 0 1.002.34 1.17.844l1.866 5.957 6.347.012c.532.004 1.002.347 1.165.851.164.506-.014 1.06-.442 1.375l-5.031 3.545 1.893 6.11c.162.505-.021 1.058-.449 1.369-.217.158-.471.236-.725.236z"/></svg>
  <svg x="0" width="1" y="1" height="1" viewBox="0 0 36 36"><path fill="#8767AC" d="M36 1C16.118 1 1 16.118 1 36h17.042c0-9.917 8.042-17.958 17.958-17.958V1z"/><path fill="#EB2027" d="M0 35.999h3.042c0-18.189 14.734-32.935 32.917-32.957V0C16.095.023 0 16.131 0 35.999z"/><path fill="#F19020" d="M3.083 36h3C6.083 19.468 19.473 6.065 36 6.043v-3C17.817 3.065 3.083 17.811 3.083 36z"/><path fill="#FFCB4C" d="M6.083 36h3C9.083 21.125 21.13 9.065 36 9.043v-3C19.473 6.065 6.083 19.468 6.083 36z"/><path fill="#5C903F" d="M9.083 36h3c0-13.217 10.705-23.935 23.917-23.957v-3C21.13 9.065 9.083 21.125 9.083 36z"/><path fill="#226798" d="M12.083 36h3c0-11.56 9.362-20.934 20.917-20.956v-3.001C22.788 12.065 12.083 22.783 12.083 36z"/></svg>
  <svg x="1" width="1" y="1" height="1" viewBox="0 0 36 36"><path fill="#5DADEC" d="M28.344 17.768L18.148 1.09 8.7 17.654c-2.2 3.51-2.392 8.074-.081 11.854 3.285 5.373 10.363 7.098 15.811 3.857 5.446-3.24 7.199-10.22 3.914-15.597z"/></svg>
</svg>